<svg width="44" height="43" viewBox="0 0 44 43" fill="none" xmlns="http://www.w3.org/2000/svg">
<path d="M33 5.37488V35.9452L23.2375 31.1211L22 30.5164L20.7625 31.1211L11 35.9452V5.37488H33ZM33 2.68738H11C10.2707 2.68738 9.57118 2.97052 9.05546 3.47453C8.53973 3.97853 8.25 4.66211 8.25 5.37488V38.7107C8.25 39.4501 9.0247 39.9338 9.68903 39.6092L22 33.5936L34.311 39.6092C34.9753 39.9338 35.75 39.4501 35.75 38.7107V5.37488C35.75 4.66211 35.4603 3.97853 34.9445 3.47453C34.4288 2.97052 33.7293 2.68738 33 2.68738Z" fill="#2D4379"/>
</svg>
