<?xml version="1.0" encoding="UTF-8" standalone="no"?>
<svg
   xmlns:dc="http://purl.org/dc/elements/1.1/"
   xmlns:cc="http://creativecommons.org/ns#"
   xmlns:rdf="http://www.w3.org/1999/02/22-rdf-syntax-ns#"
   xmlns:svg="http://www.w3.org/2000/svg"
   xmlns="http://www.w3.org/2000/svg"
   xmlns:sodipodi="http://sodipodi.sourceforge.net/DTD/sodipodi-0.dtd"
   xmlns:inkscape="http://www.inkscape.org/namespaces/inkscape"
   width="16"
   height="16"
   viewBox="0 0 16 16"
   fill="none"
   version="1.1"
   id="svg4"
   sodipodi:docname="Vector (1).svg"
   inkscape:version="0.92.5 (2060ec1f9f, 2020-04-08)">
  <metadata
     id="metadata10">
    <rdf:RDF>
      <cc:Work
         rdf:about="">
        <dc:format>image/svg+xml</dc:format>
        <dc:type
           rdf:resource="http://purl.org/dc/dcmitype/StillImage" />
      </cc:Work>
    </rdf:RDF>
  </metadata>
  <defs
     id="defs8" />
  <sodipodi:namedview
     pagecolor="#ffffff"
     bordercolor="#666666"
     borderopacity="1"
     objecttolerance="10"
     gridtolerance="10"
     guidetolerance="10"
     inkscape:pageopacity="0"
     inkscape:pageshadow="2"
     inkscape:window-width="1920"
     inkscape:window-height="1031"
     id="namedview6"
     showgrid="false"
     inkscape:zoom="14.75"
     inkscape:cx="-3.6610169"
     inkscape:cy="8"
     inkscape:window-x="0"
     inkscape:window-y="20"
     inkscape:window-maximized="1"
     inkscape:current-layer="svg4" />
  <path
     d="M8 16C6.41775 16 4.87103 15.5308 3.55544 14.6518C2.23985 13.7727 1.21447 12.5233 0.608967 11.0615C0.00346627 9.59966 -0.15496 7.99113 0.153721 6.43928C0.462403 4.88743 1.22433 3.46197 2.34315 2.34315C3.46197 1.22433 4.88743 0.462403 6.43928 0.153721C7.99113 -0.15496 9.59966 0.00346627 11.0615 0.608967C12.5233 1.21447 13.7727 2.23985 14.6518 3.55544C15.5308 4.87103 16 6.41775 16 8C16 10.1217 15.1571 12.1566 13.6569 13.6569C12.1566 15.1571 10.1217 16 8 16ZM8 1.14286C6.64379 1.14286 5.31803 1.54502 4.19038 2.2985C3.06273 3.05197 2.18383 4.12291 1.66483 5.37589C1.14583 6.62887 1.01003 8.00761 1.27462 9.33776C1.5392 10.6679 2.19228 11.8897 3.15127 12.8487C4.11026 13.8077 5.33209 14.4608 6.66224 14.7254C7.9924 14.99 9.37114 14.8542 10.6241 14.3352C11.8771 13.8162 12.948 12.9373 13.7015 11.8096C14.455 10.682 14.8571 9.35622 14.8571 8C14.8571 6.18138 14.1347 4.43723 12.8487 3.15127C11.5628 1.86531 9.81863 1.14286 8 1.14286Z"
     fill="#2D4379"
     id="path2" />
  <path
     style="fill:none;stroke:#2d4379;stroke-width:1px;stroke-linecap:butt;stroke-linejoin:miter;stroke-opacity:1"
     d="m 7.5254237,4.0677966 0.067797,4.0677966 2.7118643,3.1186438"
     id="path817"
     inkscape:connector-curvature="0" />
</svg>
